<svg width="76" height="23" viewBox="0 0 76 23" fill="none" xmlns="http://www.w3.org/2000/svg">
<g clip-path="url(#clip0_1_17)">
<path d="M51.5486 14.1444C51.489 13.1467 51.2701 12.1651 50.9003 11.2371C50.5068 10.1808 49.8132 9.26378 48.9056 8.5996C47.1963 7.40884 45.3291 7.20853 43.3649 7.84008C42.7084 8.04454 42.117 8.41873 41.65 8.92512C41.5087 9.08092 41.3951 9.2562 41.2649 9.43148V9.29792C41.2649 7.35042 41.2649 5.40292 41.2649 3.45542C41.2649 3.36082 41.2649 3.32188 41.143 3.32466C39.0726 3.32466 37.0022 3.32466 34.9318 3.32466C34.8321 3.32466 34.8127 3.35527 34.8127 3.44708C34.8127 9.9202 34.8127 16.3933 34.8127 22.8665C34.8127 22.9805 34.8404 23.0028 34.9484 23.0028C37.0077 23.0028 39.0652 23.0028 41.1209 23.0028C41.2483 23.0028 41.2677 22.9666 41.2677 22.8525C41.2677 22.2488 41.2677 21.6451 41.2677 21.0414C41.3813 21.1805 41.4699 21.3196 41.5807 21.4615C41.9997 21.9431 42.528 22.3163 43.1211 22.5493C44.1726 22.9844 45.3263 23.108 46.4455 22.9054C47.1706 22.8021 47.8672 22.5515 48.4926 22.1688C49.118 21.7862 49.6592 21.2795 50.0831 20.6797C50.85 19.5605 51.3262 18.2665 51.4682 16.9154C51.5933 15.9973 51.6203 15.0683 51.5486 14.1444ZM44.8055 16.9266C44.6518 17.2294 44.4179 17.4836 44.1295 17.6614C43.841 17.8391 43.5093 17.9333 43.1709 17.9337C42.843 17.9481 42.5178 17.8673 42.2344 17.701C41.9509 17.5348 41.7211 17.2901 41.5724 16.9961C41.317 16.503 41.1849 15.955 41.1873 15.3992C41.1467 14.8455 41.2251 14.2894 41.4173 13.7688C41.5187 13.4834 41.6881 13.2272 41.9107 13.0226C42.1333 12.8179 42.4024 12.6711 42.6944 12.5948C43.092 12.4984 43.5097 12.5308 43.8878 12.6872C44.266 12.8436 44.5852 13.116 44.7999 13.4656C45.0612 13.9032 45.2036 14.4021 45.2127 14.9123C45.2127 14.9874 45.2127 15.0598 45.2127 15.1349C45.2283 15.7587 45.0883 16.3765 44.8055 16.9321V16.9266Z" fill="#040F3F"/>
<path d="M0.00276184 13.1234C0.00276184 9.89054 0.00276184 6.65862 0.00276184 3.42762C0.00276184 3.30242 0.030465 3.27182 0.157903 3.27182H7.29997C7.41355 3.27182 7.43848 3.30243 7.43848 3.41371C7.43848 7.76684 7.43848 12.12 7.43848 16.4731C7.43848 16.5983 7.46619 16.6261 7.59085 16.6261H14.5999C14.7107 16.6261 14.7412 16.6512 14.7384 16.768C14.7384 18.799 14.7384 20.8318 14.7384 22.8665C14.7384 22.9722 14.7191 23.0028 14.6055 23.0028H0.144054C0.0332388 23.0028 0.00830802 22.975 0.00830802 22.8665C0.0064611 19.6169 0.00460876 16.3692 0.00276184 13.1234Z" fill="#040F3F"/>
<path d="M22.2739 16.6511C22.393 16.423 22.5038 16.2032 22.6147 15.9834C23.7431 13.7689 24.8688 11.5533 25.9918 9.33689C26.1414 9.05868 26.2937 8.75265 26.435 8.45774C26.4474 8.42161 26.4718 8.39085 26.5041 8.37059C26.5363 8.35034 26.5745 8.34181 26.6123 8.34645H33.7294C33.6436 8.5245 33.566 8.68865 33.4857 8.85001L30.6405 14.6369L27.7177 20.5879C27.341 21.3585 26.9586 22.1264 26.5846 22.8999C26.5724 22.934 26.5491 22.963 26.5184 22.9822C26.4877 23.0013 26.4515 23.0096 26.4156 23.0056H15.9353C15.8244 23.0056 15.7995 22.9778 15.7995 22.8693C15.7995 18.0728 15.7995 13.2773 15.7995 8.48277C15.7995 8.37705 15.8272 8.3548 15.9297 8.3548H22.1409C22.2407 8.3548 22.2601 8.38261 22.2601 8.47998V16.5037C22.2513 16.5532 22.2561 16.6042 22.2739 16.6511Z" fill="#040F3F"/>
<path d="M66.4089 16.6261H71.1186C72.7005 16.6261 74.2796 16.6261 75.8615 16.6261C75.9751 16.6261 75.9945 16.5927 75.9917 16.487C75.9917 16.1504 75.9917 15.8137 75.9917 15.4743C75.99 14.4795 75.8549 13.4894 75.59 12.5308C75.3009 11.4407 74.7513 10.4379 73.9887 9.60952C73.2264 8.81523 72.2718 8.23332 71.2183 7.92076C70.0758 7.58203 68.8839 7.44183 67.6944 7.50622C66.8436 7.52821 66 7.66769 65.1872 7.92076C62.9265 8.64133 61.3668 10.102 60.6354 12.3722C60.0805 14.1088 60.0516 15.9719 60.5523 17.7251C60.9765 19.3994 62.0365 20.8405 63.5055 21.7397C64.7369 22.4793 66.1333 22.8973 67.5669 22.9555C68.7771 23.0471 69.994 22.9371 71.1684 22.63C73.6368 21.9539 75.2049 20.3681 75.8781 17.9003C75.9141 17.764 75.9141 17.764 75.77 17.764H70.1462C70.1103 17.7605 70.0742 17.768 70.0426 17.7854C70.011 17.8027 69.9853 17.8292 69.9689 17.8614C69.8254 18.0983 69.6024 18.2759 69.34 18.3622C68.8804 18.5109 68.3915 18.5444 67.916 18.4595C67.4939 18.399 67.1038 18.1991 66.8073 17.8913C66.5109 17.5835 66.3249 17.1853 66.2787 16.7596C66.2676 16.6511 66.2926 16.6261 66.4089 16.6261ZM67.9105 11.6182C68.905 11.4541 69.8497 11.9465 70.0437 13.1679C70.0437 13.2514 70.0437 13.3348 70.0714 13.4155C70.0991 13.4962 70.0547 13.5268 69.9689 13.5268C69.4009 13.5268 68.833 13.5268 68.2651 13.5268C67.6971 13.5268 67.1375 13.5268 66.5724 13.5268C66.4809 13.5268 66.456 13.5073 66.456 13.4127C66.4339 12.9858 66.5705 12.5658 66.8392 12.2343C67.1079 11.9027 67.4897 11.6832 67.9105 11.6182Z" fill="#040F3F"/>
<path d="M52.6678 13.1234C52.6678 9.88497 52.6678 6.64842 52.6678 3.41371C52.6678 3.29964 52.6955 3.27182 52.8091 3.27182H58.9926C59.1062 3.27182 59.1256 3.30242 59.1256 3.40814C59.1256 9.89054 59.1256 16.372 59.1256 22.8526C59.1256 22.9639 59.1007 22.9972 58.9843 22.9972C56.9231 22.9972 54.8619 22.9972 52.8008 22.9972C52.6816 22.9972 52.6678 22.9611 52.6678 22.8581C52.6696 19.6141 52.6696 16.3692 52.6678 13.1234Z" fill="#040F3F"/>
<path d="M19.027 6.55473C18.3813 6.55803 17.7492 6.36891 17.2106 6.01129C16.6719 5.65367 16.251 5.14363 16.0012 4.54572C15.7513 3.94781 15.6836 3.28889 15.8068 2.65235C15.9299 2.01582 16.2383 1.43028 16.693 0.96982C17.1476 0.509362 17.728 0.194684 18.3608 0.0656136C18.9936 -0.0634572 19.6503 -0.00112281 20.2478 0.244728C20.8452 0.490579 21.3567 0.908896 21.7173 1.44674C22.078 1.98459 22.2717 2.61779 22.2739 3.26623C22.2783 3.69696 22.1975 4.1243 22.0363 4.52346C21.875 4.92261 21.6364 5.28565 21.3344 5.59154C21.0324 5.89742 20.6729 6.14006 20.2769 6.3054C19.8808 6.47074 19.456 6.55549 19.027 6.55473Z" fill="#09D1A2"/>
</g>
<defs>
<clipPath id="clip0_1_17">
<rect width="76" height="23" fill="white"/>
</clipPath>
</defs>
</svg>
